
<svg height="100%" stroke-miterlimit="10" style="fill-rule:nonzero;clip-rule:evenodd;stroke-linecap:round;stroke-linejoin:round;" version="1.1" viewBox="0 0 400 400" width="100%" xml:space="preserve" xmlns="http://www.w3.org/2000/svg" xmlns:vectornator="http://vectornator.io" xmlns:xlink="http://www.w3.org/1999/xlink">
<defs>
<filter color-interpolation-filters="sRGB" filterUnits="userSpaceOnUse" height="80" id="Filter" width="400" x="11.6878" y="143.829">
<feDropShadow dx="-0.156441" dy="0.987687" flood-color="#000000" flood-opacity="0.333" in="SourceGraphic" result="Shadow" stdDeviation="0.5"/>
</filter>
</defs>
<g id="Layer-1" vectornator:layerName="Layer 1">
<path d="M334.69 144.341C334.69 145.194 334.69 145.194 334.69 146.046C330.075 146.046 332.084 145.243 328.724 148.603C331.974 150.229 329.802 149.351 335.543 150.308C335.543 149.029 335.543 149.029 335.543 147.751C339.805 147.325 339.805 147.325 344.066 146.899C344.066 147.751 344.066 147.751 344.066 148.603C351.103 149.483 352.456 148.289 350.885 154.57C357.449 154.57 356.831 156.978 357.704 163.094C358.557 162.668 358.557 162.668 359.409 162.241C359.409 167.988 359.873 167.3 366.228 168.208C365.376 168.634 365.376 168.634 364.523 169.06C367.339 169.06 368.679 169.877 371.342 170.765C370.916 172.896 370.916 172.896 370.49 175.027C372.998 176.281 371.994 175.277 373.047 178.436C373.9 178.436 373.9 178.436 374.752 178.436C374.752 179.715 374.752 179.715 374.752 180.994C381.389 180.994 377.436 198.894 386.685 198.894C386.685 202.924 387.429 205.279 388.39 209.122C378.746 213.944 371.002 209.122 361.966 209.122C331.275 209.122 300.597 210.401 269.91 210.827C185.243 212.003 100.571 213.372 15.9013 214.236C15.9013 206.57 16.7649 197.133 18.4585 188.665C16.7537 188.097 15.049 187.528 13.3442 186.96C13.3442 184.578 14.8589 183.931 15.9013 181.846C14.6228 181.846 14.6228 181.846 13.3442 181.846C13.3442 180.141 13.3442 180.141 13.3442 178.436C15.049 178.01 15.049 178.01 16.7537 177.584C16.7537 178.863 16.7537 178.863 16.7537 180.141C15.9013 180.141 15.9013 180.141 15.049 180.141C18.7868 182.01 16.7537 180.358 16.7537 187.813C21.6908 187.813 20.9428 186.108 25.2775 186.108C26.414 182.698 25.2775 183.835 28.687 182.698C28.687 177.533 38.9115 164.8 41.4726 163.946C41.4726 161.083 41.3097 159.339 44.0298 157.979C44.0298 163.288 41.2522 164.798 48.2917 164.798C48.2917 168.155 47.9788 168.834 46.5869 171.617C52.5646 171.617 50.8488 166.376 50.8488 161.389C58.5594 160.425 55.4946 159.812 60.2249 161.389C60.2249 162.241 60.2249 162.241 60.2249 163.094C61.5035 163.52 61.5035 163.52 62.7821 163.946C64.7566 156.048 63.5846 155.422 71.3058 155.422C71.3058 152.865 71.3058 152.865 71.3058 150.308C67.8963 150.308 67.8963 150.308 64.4868 150.308C69.2759 140.73 102.94 148.603 115.629 148.603C168.938 148.603 223.793 146.688 277.581 145.194C277.581 148.07 277.719 146.347 276.729 150.308C282.528 150.308 287.406 144.14 296.333 148.603C296.333 147.751 296.333 147.751 296.333 146.899C305.425 145.762 300.879 145.762 309.971 146.899C311.095 144.651 330.856 144.341 334.69 144.341Z" fill="#eeecd9" fill-rule="nonzero" filter="url(#Filter)" stroke="#f1ecc9" stroke-linecap="round" stroke-linejoin="round" stroke-width="1" vectornator:shadowAngle="1.72788" vectornator:shadowColor="#000000" vectornator:shadowOffset="1" vectornator:shadowOpacity="0.333" vectornator:shadowRadius="1"/>
</g>
</svg>
